<mxfile host="app.diagrams.net" agent="Mozilla/5.0 (Windows NT 10.0; Win64; x64) AppleWebKit/537.36 (KHTML, like Gecko) Chrome/135.0.0.0 Safari/537.36" version="26.2.14">
  <diagram name="Page-1" id="929967ad-93f9-6ef4-fab6-5d389245f69c">
    <mxGraphModel dx="872" dy="511" grid="1" gridSize="10" guides="1" tooltips="1" connect="1" arrows="1" fold="1" page="1" pageScale="1.5" pageWidth="827" pageHeight="1169" background="none" math="0" shadow="0">
      <root>
        <mxCell id="0" style=";html=1;" />
        <mxCell id="1" style=";html=1;" parent="0" />
        <mxCell id="1672d66443f91eb5-23" value="Penerimaan Siswa Baru &amp;amp; Daftar Ulang" style="text;strokeColor=none;fillColor=none;html=1;fontSize=24;fontStyle=1;verticalAlign=middle;align=center;" parent="1" vertex="1">
          <mxGeometry x="40" y="40" width="1160" height="40" as="geometry" />
        </mxCell>
        <mxCell id="_KyKIUHTHEUxdtjY7VwU-4" style="edgeStyle=orthogonalEdgeStyle;rounded=0;orthogonalLoop=1;jettySize=auto;html=1;exitX=0.5;exitY=1;exitDx=0;exitDy=0;" edge="1" parent="1" source="_KyKIUHTHEUxdtjY7VwU-3">
          <mxGeometry relative="1" as="geometry">
            <mxPoint x="500" y="320" as="targetPoint" />
          </mxGeometry>
        </mxCell>
        <mxCell id="_KyKIUHTHEUxdtjY7VwU-5" value="&lt;font style=&quot;font-size: 12px;&quot;&gt;YA&lt;/font&gt;" style="edgeLabel;html=1;align=center;verticalAlign=middle;resizable=0;points=[];" vertex="1" connectable="0" parent="_KyKIUHTHEUxdtjY7VwU-4">
          <mxGeometry x="-0.4534" y="1" relative="1" as="geometry">
            <mxPoint x="-1" y="8" as="offset" />
          </mxGeometry>
        </mxCell>
        <mxCell id="_KyKIUHTHEUxdtjY7VwU-23" value="" style="edgeStyle=orthogonalEdgeStyle;rounded=0;orthogonalLoop=1;jettySize=auto;html=1;" edge="1" parent="1" source="_KyKIUHTHEUxdtjY7VwU-3" target="_KyKIUHTHEUxdtjY7VwU-22">
          <mxGeometry relative="1" as="geometry" />
        </mxCell>
        <mxCell id="_KyKIUHTHEUxdtjY7VwU-32" value="Tidak" style="edgeLabel;html=1;align=center;verticalAlign=middle;resizable=0;points=[];" vertex="1" connectable="0" parent="_KyKIUHTHEUxdtjY7VwU-23">
          <mxGeometry x="-0.0727" y="1" relative="1" as="geometry">
            <mxPoint as="offset" />
          </mxGeometry>
        </mxCell>
        <mxCell id="_KyKIUHTHEUxdtjY7VwU-3" value="&lt;font style=&quot;font-size: 14px;&quot;&gt;Siswa&amp;nbsp;&lt;/font&gt;&lt;div&gt;&lt;font style=&quot;font-size: 14px;&quot;&gt;Baru ?&lt;/font&gt;&lt;/div&gt;" style="rhombus;whiteSpace=wrap;html=1;" vertex="1" parent="1">
          <mxGeometry x="440" y="200" width="120" height="80" as="geometry" />
        </mxCell>
        <mxCell id="_KyKIUHTHEUxdtjY7VwU-12" style="edgeStyle=orthogonalEdgeStyle;rounded=0;orthogonalLoop=1;jettySize=auto;html=1;" edge="1" parent="1">
          <mxGeometry relative="1" as="geometry">
            <mxPoint x="499.75" y="550" as="targetPoint" />
            <mxPoint x="499.75" y="520" as="sourcePoint" />
          </mxGeometry>
        </mxCell>
        <mxCell id="_KyKIUHTHEUxdtjY7VwU-7" value="Data Calon Siswa" style="swimlane;horizontal=0;whiteSpace=wrap;html=1;" vertex="1" parent="1">
          <mxGeometry x="400" y="320" width="200" height="200" as="geometry" />
        </mxCell>
        <mxCell id="_KyKIUHTHEUxdtjY7VwU-9" value="Nama Siswa&lt;div&gt;Tempat / Tgl Lahir&lt;/div&gt;&lt;div&gt;Alamat Domisili&lt;br&gt;Jenis Kelamin&lt;br&gt;Asal Sekolah&lt;/div&gt;&lt;div&gt;Nomor Kartu Keluarga&lt;/div&gt;&lt;div&gt;Daftar untuk Tingkat&lt;/div&gt;&lt;div&gt;Nama Ayah&lt;/div&gt;&lt;div&gt;Nama Ibu&lt;br&gt;Email Aktif Orang Tua&lt;/div&gt;&lt;div&gt;Nomor Telpon&amp;nbsp;&lt;/div&gt;" style="text;html=1;align=left;verticalAlign=middle;resizable=0;points=[];autosize=1;strokeColor=none;fillColor=none;" vertex="1" parent="_KyKIUHTHEUxdtjY7VwU-7">
          <mxGeometry x="30" y="10" width="140" height="170" as="geometry" />
        </mxCell>
        <mxCell id="_KyKIUHTHEUxdtjY7VwU-11" value="Submit" style="rounded=1;html=1;shadow=0;dashed=0;whiteSpace=wrap;fontSize=10;fillColor=#E6E6E6;align=center;strokeColor=#B3B3B3;fontColor=#333333;arcSize=50;" vertex="1" parent="_KyKIUHTHEUxdtjY7VwU-7">
          <mxGeometry x="65" y="180" width="70" height="16.88" as="geometry" />
        </mxCell>
        <mxCell id="_KyKIUHTHEUxdtjY7VwU-19" value="" style="edgeStyle=orthogonalEdgeStyle;rounded=0;orthogonalLoop=1;jettySize=auto;html=1;" edge="1" parent="1" source="_KyKIUHTHEUxdtjY7VwU-13" target="_KyKIUHTHEUxdtjY7VwU-14">
          <mxGeometry relative="1" as="geometry" />
        </mxCell>
        <mxCell id="_KyKIUHTHEUxdtjY7VwU-13" value="03 Email Sekolah Athalia - Verifikasi Email Pembelian Formulir Sekolah Athalia" style="shape=process;whiteSpace=wrap;html=1;backgroundOutline=1;" vertex="1" parent="1">
          <mxGeometry x="400" y="650" width="200" height="60" as="geometry" />
        </mxCell>
        <mxCell id="_KyKIUHTHEUxdtjY7VwU-27" value="" style="edgeStyle=orthogonalEdgeStyle;rounded=0;orthogonalLoop=1;jettySize=auto;html=1;" edge="1" parent="1" source="_KyKIUHTHEUxdtjY7VwU-14" target="_KyKIUHTHEUxdtjY7VwU-24">
          <mxGeometry relative="1" as="geometry" />
        </mxCell>
        <mxCell id="_KyKIUHTHEUxdtjY7VwU-14" value="04 Disclaimer - Registrasi Pembelian Formulir Calon Siswa Baru" style="shape=process;whiteSpace=wrap;html=1;backgroundOutline=1;" vertex="1" parent="1">
          <mxGeometry x="400" y="740" width="200" height="60" as="geometry" />
        </mxCell>
        <mxCell id="_KyKIUHTHEUxdtjY7VwU-17" value="" style="edgeStyle=orthogonalEdgeStyle;rounded=0;orthogonalLoop=1;jettySize=auto;html=1;entryX=0.5;entryY=0;entryDx=0;entryDy=0;" edge="1" parent="1" source="_KyKIUHTHEUxdtjY7VwU-15" target="_KyKIUHTHEUxdtjY7VwU-13">
          <mxGeometry relative="1" as="geometry">
            <mxPoint x="500" y="640" as="targetPoint" />
          </mxGeometry>
        </mxCell>
        <mxCell id="_KyKIUHTHEUxdtjY7VwU-15" value="02 Konfirmasi Permintaan pembelian formulir sukses" style="shape=process;whiteSpace=wrap;html=1;backgroundOutline=1;" vertex="1" parent="1">
          <mxGeometry x="400" y="550" width="200" height="70" as="geometry" />
        </mxCell>
        <mxCell id="_KyKIUHTHEUxdtjY7VwU-21" value="" style="edgeStyle=orthogonalEdgeStyle;rounded=0;orthogonalLoop=1;jettySize=auto;html=1;" edge="1" parent="1" source="_KyKIUHTHEUxdtjY7VwU-20" target="_KyKIUHTHEUxdtjY7VwU-3">
          <mxGeometry relative="1" as="geometry" />
        </mxCell>
        <mxCell id="_KyKIUHTHEUxdtjY7VwU-20" value="Start" style="rounded=1;whiteSpace=wrap;html=1;arcSize=50;" vertex="1" parent="1">
          <mxGeometry x="440" y="130" width="120" height="40" as="geometry" />
        </mxCell>
        <mxCell id="_KyKIUHTHEUxdtjY7VwU-31" value="" style="edgeStyle=orthogonalEdgeStyle;rounded=0;orthogonalLoop=1;jettySize=auto;html=1;" edge="1" parent="1" source="_KyKIUHTHEUxdtjY7VwU-22" target="_KyKIUHTHEUxdtjY7VwU-30">
          <mxGeometry relative="1" as="geometry" />
        </mxCell>
        <mxCell id="_KyKIUHTHEUxdtjY7VwU-22" value="Form Daftar Ualng Siswa Dalam" style="whiteSpace=wrap;html=1;" vertex="1" parent="1">
          <mxGeometry x="670" y="210" width="120" height="60" as="geometry" />
        </mxCell>
        <mxCell id="_KyKIUHTHEUxdtjY7VwU-28" value="" style="edgeStyle=orthogonalEdgeStyle;rounded=0;orthogonalLoop=1;jettySize=auto;html=1;" edge="1" parent="1" source="_KyKIUHTHEUxdtjY7VwU-24" target="_KyKIUHTHEUxdtjY7VwU-25">
          <mxGeometry relative="1" as="geometry" />
        </mxCell>
        <mxCell id="_KyKIUHTHEUxdtjY7VwU-24" value="05 Verifikasi email sukses. - Registrasi Pembelian Formulir Calon Siswa Baru" style="shape=process;whiteSpace=wrap;html=1;backgroundOutline=1;" vertex="1" parent="1">
          <mxGeometry x="400" y="840" width="200" height="60" as="geometry" />
        </mxCell>
        <mxCell id="_KyKIUHTHEUxdtjY7VwU-29" value="" style="edgeStyle=orthogonalEdgeStyle;rounded=0;orthogonalLoop=1;jettySize=auto;html=1;" edge="1" parent="1" source="_KyKIUHTHEUxdtjY7VwU-25" target="_KyKIUHTHEUxdtjY7VwU-26">
          <mxGeometry relative="1" as="geometry" />
        </mxCell>
        <mxCell id="_KyKIUHTHEUxdtjY7VwU-25" value="06 Email dari Sekolah Athalia - Link Pengisian Data Calon Siswa di Sekolah Athalia" style="shape=process;whiteSpace=wrap;html=1;backgroundOutline=1;" vertex="1" parent="1">
          <mxGeometry x="400" y="960" width="200" height="60" as="geometry" />
        </mxCell>
        <mxCell id="_KyKIUHTHEUxdtjY7VwU-39" value="" style="edgeStyle=orthogonalEdgeStyle;rounded=0;orthogonalLoop=1;jettySize=auto;html=1;" edge="1" parent="1" source="_KyKIUHTHEUxdtjY7VwU-26" target="_KyKIUHTHEUxdtjY7VwU-38">
          <mxGeometry relative="1" as="geometry" />
        </mxCell>
        <mxCell id="_KyKIUHTHEUxdtjY7VwU-26" value="07 Aplikasi PSB Sekolah Athalia _ sebagai parent" style="shape=process;whiteSpace=wrap;html=1;backgroundOutline=1;" vertex="1" parent="1">
          <mxGeometry x="400" y="1080" width="200" height="60" as="geometry" />
        </mxCell>
        <mxCell id="_KyKIUHTHEUxdtjY7VwU-36" value="" style="edgeStyle=orthogonalEdgeStyle;rounded=0;orthogonalLoop=1;jettySize=auto;html=1;" edge="1" parent="1" source="_KyKIUHTHEUxdtjY7VwU-30" target="_KyKIUHTHEUxdtjY7VwU-34">
          <mxGeometry relative="1" as="geometry" />
        </mxCell>
        <mxCell id="_KyKIUHTHEUxdtjY7VwU-30" value="02 Konfirmasi Permintaan pembelian formulir sukses" style="shape=process;whiteSpace=wrap;html=1;backgroundOutline=1;" vertex="1" parent="1">
          <mxGeometry x="630" y="320" width="200" height="70" as="geometry" />
        </mxCell>
        <mxCell id="_KyKIUHTHEUxdtjY7VwU-37" style="edgeStyle=orthogonalEdgeStyle;rounded=0;orthogonalLoop=1;jettySize=auto;html=1;" edge="1" parent="1" source="_KyKIUHTHEUxdtjY7VwU-33">
          <mxGeometry relative="1" as="geometry">
            <mxPoint x="500" y="1050" as="targetPoint" />
            <Array as="points">
              <mxPoint x="730" y="1050" />
            </Array>
          </mxGeometry>
        </mxCell>
        <mxCell id="_KyKIUHTHEUxdtjY7VwU-33" value="06 Email dari Sekolah Athalia - Link Update Data Siswa Lama" style="shape=process;whiteSpace=wrap;html=1;backgroundOutline=1;" vertex="1" parent="1">
          <mxGeometry x="630" y="650" width="200" height="60" as="geometry" />
        </mxCell>
        <mxCell id="_KyKIUHTHEUxdtjY7VwU-35" value="" style="edgeStyle=orthogonalEdgeStyle;rounded=0;orthogonalLoop=1;jettySize=auto;html=1;" edge="1" parent="1" source="_KyKIUHTHEUxdtjY7VwU-34" target="_KyKIUHTHEUxdtjY7VwU-33">
          <mxGeometry relative="1" as="geometry" />
        </mxCell>
        <mxCell id="_KyKIUHTHEUxdtjY7VwU-34" value="04 Disclaimer - Registrasi Pembelian Formulir Siswa Lama" style="shape=process;whiteSpace=wrap;html=1;backgroundOutline=1;" vertex="1" parent="1">
          <mxGeometry x="630" y="490" width="200" height="60" as="geometry" />
        </mxCell>
        <mxCell id="_KyKIUHTHEUxdtjY7VwU-38" value="End" style="rounded=1;whiteSpace=wrap;html=1;arcSize=50;" vertex="1" parent="1">
          <mxGeometry x="440" y="1200" width="120" height="40" as="geometry" />
        </mxCell>
      </root>
    </mxGraphModel>
  </diagram>
</mxfile>
